<svg xmlns="http://www.w3.org/2000/svg" width="800" height="500" viewBox="0 0 800 500">
  <defs>
    <linearGradient id="bg" x1="0%" y1="0%" x2="100%" y2="100%">
      <stop offset="0%" stop-color="#0f172a"/>
      <stop offset="100%" stop-color="#334155"/>
    </linearGradient>
  </defs>
  <rect width="800" height="500" fill="url(#bg)"/>
  <rect x="360" y="100" width="80" height="50" rx="8" fill="#38bdf8"/>
  <text x="400" y="135" text-anchor="middle" fill="#0f172a" font-size="14" font-weight="700">API GW</text>
  <line x1="400" y1="150" x2="280" y2="220" stroke="#94a3b8" stroke-width="2"/>
  <line x1="400" y1="150" x2="400" y2="220" stroke="#94a3b8" stroke-width="2"/>
  <line x1="400" y1="150" x2="520" y2="220" stroke="#94a3b8" stroke-width="2"/>
  <rect x="220" y="220" width="120" height="60" rx="8" fill="#22c55e"/>
  <rect x="340" y="220" width="120" height="60" rx="8" fill="#f59e0b"/>
  <rect x="460" y="220" width="120" height="60" rx="8" fill="#ef4444"/>
  <text x="280" y="258" text-anchor="middle" fill="#fff" font-size="13" font-weight="600">Product</text>
  <text x="400" y="258" text-anchor="middle" fill="#fff" font-size="13" font-weight="600">Cart</text>
  <text x="520" y="258" text-anchor="middle" fill="#fff" font-size="13" font-weight="600">Order</text>
  <path d="M400 280 Q400 310 360 330" fill="none" stroke="#fbbf24" stroke-width="2" stroke-dasharray="6"/>
  <text x="400" y="355" text-anchor="middle" fill="#fde68a" font-size="13">ActiveMQ</text>
  <text x="400" y="400" text-anchor="middle" fill="#fff" font-family="Segoe UI,Arial,sans-serif" font-size="26" font-weight="700">Ecommerce Microservices</text>
  <text x="400" y="435" text-anchor="middle" fill="#cbd5e1" font-family="Segoe UI,Arial,sans-serif" font-size="17">SpringBoot · Eureka · MQ</text>
</svg>
